<svg xmlns="http://www.w3.org/2000/svg" viewBox="0 0 600 430"><rect width="600" height="430" fill="#f8f8f6"/><g fill="#e1e1dd" stroke="#fff" stroke-width="0.8"><path d="M595.1,392.9L587.3,398.8L588.2,401.4L588.5,402.6L576.7,408.2L571.0,406.4L568.3,400.8L573.8,400.3L574.6,400.2L576.3,396.9L584.6,397.1L595.1,392.9Z"/><path d="M469.6,392.5L475.9,397.2L484.9,396.4L493.5,397.3L493.2,399.8L499.5,398.1L498.1,402.2L481.4,403.4L481.6,401.1L467.5,398.4L469.6,392.5Z"/><path d="M375.2,357.4L371.1,368.4L372.8,372.7L370.4,379.8L361.6,374.6L355.7,373.1L339.6,366.0L341.2,358.9L354.7,360.2L366.5,358.6L375.2,357.4Z"/><path d="M302.4,316.1L309.3,326.0L307.7,344.3L302.5,343.4L297.8,348.1L293.4,344.4L292.9,327.7L290.3,319.7L296.7,320.4L302.4,316.1Z"/><path d="M306.5,303.0L302.7,313.8L297.4,310.9L294.7,301.6L297.1,296.4L304.5,291.2L306.5,303.0Z"/><path d="M117.8,162.8L97.4,171.0L81.0,168.9L90.4,154.5L84.4,140.4L100.1,129.5L108.8,123.0L118.5,122.4L130.8,131.0L124.6,140.5L126.5,150.5L117.8,162.8Z"/><path d="M342.6,116.4L335.7,127.6L323.6,119.8L322.0,114.0L338.9,109.4L342.6,116.4Z"/><path d="M161.5,74.4L149.1,89.4L160.9,87.5L173.5,87.6L170.5,98.9L160.2,111.3L172.1,112.2L183.3,130.0L191.2,132.3L198.3,148.1L201.6,153.6L215.6,156.2L214.2,165.1L208.3,169.1L212.9,176.3L202.5,183.6L187.1,183.4L167.4,187.3L162.0,184.5L154.4,191.0L143.7,189.5L135.6,194.7L129.5,192.0L146.4,177.4L156.8,174.4L138.6,172.1L135.4,166.6L147.4,162.3L141.1,154.8L143.3,145.7L160.5,147.0L162.2,138.9L154.3,130.2L140.3,127.7L137.5,124.0L141.7,117.8L137.9,114.0L131.7,120.5L131.0,107.2L125.2,100.1L129.4,85.7L138.3,74.5L147.6,75.6L161.5,74.4Z"/><path d="M28.7,-34.1L26.1,-25.1L39.1,-15.6L24.1,-5.1L-9.2,4.5L-19.1,7.0L-34.3,4.9L-66.5,0.6L-55.1,-5.6L-80.3,-12.4L-59.8,-15.0L-60.3,-19.1L-84.5,-22.3L-76.7,-31.4L-59.2,-33.4L-41.3,-24.0L-23.7,-31.6L-9.2,-27.7L9.6,-35.0L28.7,-34.1Z"/><path d="M1430.4,-180.0L1433.5,-173.1L1444.1,-176.5L1477.8,-176.3L1503.8,-169.5L1513.1,-164.3L1510.2,-157.1L1497.5,-153.0L1467.1,-145.3L1458.5,-141.2L1472.8,-139.3L1489.8,-135.8L1500.2,-138.4L1506.1,-129.5L1511.2,-133.1L1529.6,-135.3L1566.6,-133.0L1569.5,-126.5L1617.7,-124.4L1618.4,-135.0L1642.8,-132.6L1661.3,-132.7L1679.9,-125.4L1685.2,-116.5L1678.4,-110.7L1692.9,-99.8L1711.0,-94.1L1722.2,-108.7L1740.7,-102.5L1760.3,-106.2L1782.7,-101.9L1791.2,-105.8L1810.0,-103.9L1801.7,-116.7L1816.9,-122.8L1921.2,-113.7L1931.0,-105.5L1961.2,-94.9L2007.8,-97.5L2030.7,-95.2L2040.3,-89.5L2038.9,-79.4L2053.2,-75.4L2068.6,-78.3L2089.1,-78.6L2110.9,-75.9L2132.7,-77.4L2152.8,-65.1L2167.1,-69.5L2157.8,-78.4L2162.9,-84.6L2199.7,-80.7L2223.7,-81.5L2256.9,-74.9L2273.1,-68.9L2273.1,-13.6L2273.0,-13.5L2258.2,-7.4L2243.2,-8.4L2253.6,-1.1L2260.5,10.4L2265.8,14.1L2267.2,19.8L2264.2,23.5L2242.7,20.5L2210.4,30.9L2200.2,32.6L2182.5,42.3L2165.8,50.8L2161.5,57.1L2145.0,47.5L2114.9,58.4L2109.7,53.3L2098.6,59.2L2083.1,57.3L2079.4,66.4L2065.6,79.9L2066.0,85.5L2079.1,88.6L2077.6,108.8L2066.9,109.3L2061.9,120.9L2066.7,126.8L2046.6,133.9L2042.6,149.8L2025.4,153.2L2021.9,167.2L2005.3,180.2L2001.0,170.6L1996.1,150.4L1989.6,119.6L1995.2,100.3L2004.9,92.0L2005.5,85.6L2023.4,82.5L2044.0,65.0L2063.9,50.7L2084.7,39.7L2093.9,20.1L2079.9,21.3L2073.0,32.7L2043.7,47.9L2034.3,30.9L2004.5,35.6L1975.6,58.8L1985.1,67.3L1959.4,71.0L1941.5,72.4L1942.4,62.4L1924.4,60.3L1910.1,67.1L1874.9,64.7L1836.9,68.8L1799.5,95.9L1755.3,128.6L1773.5,130.3L1779.2,139.0L1790.4,142.1L1797.7,135.2L1810.4,136.1L1827.1,151.3L1827.5,163.1L1818.4,177.0L1817.5,193.6L1812.3,215.7L1794.9,235.8L1791.0,245.4L1775.3,261.6L1759.8,277.6L1752.3,285.8L1737.0,293.9L1729.7,294.1L1722.4,287.3L1707.0,297.5L1705.2,302.1L1700.8,301.3L1695.8,306.0L1692.3,310.7L1692.8,320.7L1686.8,323.7L1684.7,326.2L1680.4,330.3L1672.7,332.5L1667.7,336.3L1667.3,342.3L1666.0,343.8L1670.6,346.1L1677.1,352.2L1687.1,368.5L1689.9,377.5L1690.0,393.5L1685.7,401.1L1675.2,403.8L1666.0,409.5L1655.6,410.7L1654.3,403.2L1656.5,392.8L1651.4,378.3L1659.9,376.0L1652.0,364.1L1646.4,361.5L1645.0,364.1L1641.6,365.2L1641.2,362.6L1638.2,361.4L1635.1,359.1L1638.3,353.0L1641.0,351.4L1640.0,348.9L1642.9,341.4L1642.2,339.1L1635.4,337.6L1630.0,333.9L1613.9,337.9L1605.4,344.4L1592.9,348.2L1599.1,341.8L1596.7,336.4L1605.8,327.0L1599.7,319.8L1589.6,324.7L1576.6,334.3L1569.5,343.3L1558.2,343.9L1552.3,350.4L1558.4,359.8L1567.8,362.1L1568.2,368.3L1577.3,372.3L1590.3,362.4L1600.5,367.8L1608.0,368.2L1609.8,375.5L1593.5,379.4L1588.1,386.8L1576.9,393.8L1571.0,403.5L1583.4,411.1L1587.9,424.8L1595.0,437.5L1602.8,448.1L1602.6,458.4L1595.4,462.2L1598.1,469.6L1604.9,473.9L1603.1,485.2L1600.2,496.2L1593.8,497.5L1585.3,512.5L1576.0,530.7L1565.3,547.2L1549.4,560.0L1533.4,571.7L1520.4,573.3L1513.3,579.5L1509.3,575.0L1502.8,581.9L1486.7,588.8L1474.4,590.9L1470.5,605.6L1464.1,606.4L1461.1,596.3L1463.8,591.0L1448.3,586.5L1442.9,588.8L1427.5,600.7L1417.9,613.8L1415.3,623.4L1424.2,638.0L1434.9,656.1L1445.4,664.7L1452.4,675.8L1457.7,701.5L1456.2,725.9L1446.5,735.0L1433.3,744.0L1423.9,755.5L1409.5,768.5L1405.3,759.6L1408.6,750.2L1400.0,742.3L1390.4,740.3L1385.7,733.0L1379.8,718.7L1369.5,712.3L1359.6,712.6L1361.3,701.7L1351.1,701.8L1350.2,717.0L1344.0,737.3L1340.2,749.5L1341.0,759.6L1348.5,760.0L1353.2,772.7L1355.3,784.7L1361.7,792.6L1368.7,794.2L1374.7,801.4L1377.4,802.7L1384.2,811.1L1389.0,820.4L1389.7,829.7L1388.4,836.0L1389.6,840.8L1390.4,849.0L1394.5,852.8L1399.0,865.1L1398.8,869.8L1390.6,870.7L1379.7,860.5L1366.0,849.4L1364.7,842.4L1358.0,833.1L1356.4,821.6L1352.3,814.1L1353.5,804.0L1351.0,798.1L1346.4,792.7L1344.5,785.9L1338.3,778.0L1332.7,771.5L1330.8,779.6L1328.7,771.9L1329.9,763.3L1333.3,750.0L1332.2,739.7L1335.7,729.0L1331.9,720.8L1332.8,705.7L1328.1,698.5L1324.4,681.9L1322.3,664.4L1317.3,652.9L1309.7,659.9L1296.6,669.8L1290.1,668.5L1282.9,665.3L1286.9,648.1L1284.5,635.1L1275.5,619.1L1276.9,614.1L1270.1,612.3L1261.9,601.0L1258.6,593.8L1258.0,586.7L1255.8,580.0L1251.0,572.0L1240.3,571.4L1241.4,577.1L1237.8,584.8L1232.9,582.0L1231.2,584.6L1227.9,583.0L1223.4,581.8L1221.8,586.9L1213.9,586.7L1199.7,589.6L1200.4,600.0L1194.2,608.2L1177.6,617.6L1164.7,633.9L1156.0,642.6L1144.5,651.7L1144.5,658.1L1138.8,661.5L1128.4,666.5L1123.0,667.2L1119.5,677.8L1121.9,695.8L1122.5,707.3L1117.6,720.5L1117.6,744.1L1111.6,744.7L1106.4,755.3L1109.9,759.9L1099.4,763.8L1095.5,773.3L1090.8,777.3L1079.9,764.3L1074.6,744.9L1070.2,730.9L1066.1,724.3L1060.0,711.0L1057.1,693.6L1055.1,685.0L1044.6,665.9L1039.8,639.1L1036.4,621.3L1036.4,604.5L1034.2,591.5L1017.4,599.8L1009.3,598.2L994.2,581.3L999.7,576.3L996.3,570.9L982.8,559.1L974.4,555.6L970.9,545.6L962.0,535.1L940.7,537.7L922.0,537.9L905.7,539.9L884.0,535.7L871.5,532.5L858.4,530.7L853.5,513.7L848.0,511.2L839.1,513.7L827.5,520.4L813.4,515.8L801.7,505.2L790.6,501.2L782.9,488.1L774.4,469.6L768.2,471.8L760.9,467.2L756.6,472.6L749.7,471.9L752.1,478.1L751.1,481.2L754.8,491.7L759.3,503.7L765.0,506.8L767.0,511.7L774.8,517.5L775.5,523.3L774.4,527.9L775.8,532.5L779.2,536.4L780.7,541.0L782.4,544.4L781.7,534.3L784.8,527.0L787.9,525.5L791.4,529.9L791.6,538.0L789.1,546.1L791.3,551.4L793.4,550.8L793.8,554.6L802.8,552.4L812.4,552.7L819.3,553.1L827.2,543.8L835.8,534.9L843.1,526.3L846.5,521.6L847.9,522.8L846.8,528.5L845.3,531.1L846.9,542.0L852.1,551.5L858.5,556.5L867.0,558.3L873.8,560.9L879.0,568.8L882.1,573.4L886.2,575.2L886.2,578.3L882.0,586.5L880.2,590.4L875.3,594.9L871.0,604.4L865.8,603.6L863.4,607.0L861.5,614.0L862.9,623.3L861.9,625.0L856.5,624.9L849.3,630.1L848.2,636.9L845.6,639.8L838.4,639.7L833.9,643.2L833.9,648.8L828.4,652.6L822.0,651.3L814.3,656.0L808.9,656.8L800.6,660.5L798.4,666.7L798.1,671.4L786.6,677.2L768.2,683.7L757.8,693.5L752.8,694.3L749.3,693.4L742.6,699.2L735.2,701.9L725.5,702.6L722.6,703.4L720.1,707.0L717.0,708.1L715.3,711.6L709.6,711.3L705.9,713.2L697.9,712.5L694.9,704.4L695.2,696.8L693.3,692.7L691.1,682.4L687.7,676.7L690.1,676.0L688.9,669.7L690.3,667.0L689.8,661.0L688.3,655.1L684.8,650.9L683.9,645.4L677.9,640.4L671.8,628.7L668.5,617.4L660.6,607.9L655.4,605.6L647.8,592.4L646.4,582.8L646.9,574.5L640.3,559.2L634.9,553.7L628.7,550.9L624.9,542.9L625.5,539.8L622.3,532.6L618.9,529.5L614.4,519.2L607.4,508.0L601.5,498.5L595.8,498.5L597.6,490.9L598.1,486.1L599.5,480.5L599.1,478.5L595.9,484.1L593.4,494.6L590.2,501.8L587.6,504.2L583.7,499.8L578.5,493.6L570.3,473.7L569.1,474.9L573.9,489.6L580.9,503.5L589.7,525.1L593.9,532.7L597.6,540.5L608.0,555.9L605.7,558.3L606.1,567.3L619.5,579.7L621.5,582.6L625.3,596.2L622.7,598.7L624.4,613.0L628.6,629.5L633.0,633.0L639.3,638.1L646.0,654.1L649.2,666.9L655.5,673.6L671.3,686.7L677.7,694.6L684.0,702.6L687.6,707.4L693.2,711.6L696.0,715.9L695.6,721.6L689.0,725.0L694.0,728.8L697.7,731.3L700.0,737.0L705.2,742.9L710.9,742.9L721.8,739.3L734.4,737.7L744.5,733.4L750.3,732.5L754.4,730.0L760.9,729.5L764.6,729.2L769.9,727.1L776.1,725.7L781.5,721.0L785.9,720.9L786.2,724.8L785.1,732.9L785.1,740.1L782.7,745.2L779.5,760.1L773.9,775.6L766.8,793.4L756.9,813.7L747.0,829.2L733.4,848.1L721.9,859.4L704.6,873.1L693.9,883.7L681.3,900.5L678.6,907.8L676.0,911.1L667.9,916.6L665.1,922.4L660.7,923.4L659.1,933.2L655.4,938.8L653.1,948.0L648.5,952.6L643.2,969.7L643.8,977.6L651.2,982.6L651.6,986.2L648.4,994.6L649.1,998.8L648.3,1005.4L652.3,1014.1L657.1,1027.8L661.3,1030.8L663.2,1037.1L662.7,1050.9L664.2,1063.1L664.6,1084.7L666.6,1091.5L663.2,1101.4L658.7,1111.1L651.4,1119.7L640.8,1124.9L627.8,1131.7L614.8,1146.6L610.3,1149.1L602.3,1159.0L597.5,1162.2L596.6,1172.1L602.0,1182.6L604.3,1190.7L604.5,1194.8L606.5,1194.2L606.2,1207.8L604.3,1214.2L607.0,1216.6L605.3,1222.3L600.5,1227.3L591.0,1232.0L577.1,1239.5L572.0,1244.6L573.0,1250.4L576.0,1251.4L575.0,1258.7L572.1,1268.8L570.7,1280.3L567.7,1286.6L559.9,1293.6L557.6,1295.6L552.7,1302.6L549.5,1309.7L543.0,1319.7L529.9,1334.0L521.8,1342.3L513.1,1348.6L501.0,1354.0L495.1,1354.7L493.6,1358.6L486.6,1356.5L480.9,1359.2L468.4,1356.5L461.4,1358.2L456.6,1357.5L444.7,1362.9L434.9,1365.1L427.7,1370.4L422.5,1370.7L417.6,1365.8L413.7,1365.5L408.7,1359.3L408.2,1361.2L406.7,1357.5L406.7,1349.4L403.0,1340.1L406.7,1337.6L406.4,1326.9L398.8,1313.9L393.1,1302.2L393.0,1302.2L384.8,1284.1L376.2,1273.6L371.7,1263.5L369.1,1250.0L366.3,1240.0L362.4,1218.6L362.1,1202.0L360.7,1194.4L356.2,1188.7L350.2,1177.3L344.2,1160.6L341.6,1151.9L332.2,1138.4L331.5,1127.7L330.5,1119.0L332.1,1106.8L336.0,1094.1L336.6,1088.2L340.4,1075.7L343.1,1070.0L349.8,1060.9L353.5,1054.7L354.7,1044.5L354.1,1036.6L350.6,1031.6L347.6,1023.2L344.7,1014.9L345.3,1012.0L348.9,1006.5L345.4,993.1L343.0,983.8L337.2,975.1L338.3,972.4L336.7,968.1L333.6,957.6L324.2,942.9L312.3,928.9L304.7,917.5L297.7,903.2L298.0,898.5L300.6,894.1L303.4,884.0L305.7,873.7L303.5,871.6L307.5,856.1L309.2,845.1L304.7,835.9L299.4,833.6L297.1,827.4L294.1,825.4L294.2,821.5L282.3,826.5L277.9,825.8L273.4,828.9L264.2,828.6L258.0,819.9L254.2,809.9L246.1,800.8L237.4,800.9L227.2,800.9L217.7,802.5L208.4,805.5L190.3,813.6L183.9,818.4L173.5,822.4L163.2,818.5L157.9,818.6L149.9,815.9L142.5,816.1L128.8,818.5L120.8,822.5L109.4,827.6L107.2,827.2L104.1,827.3L92.3,820.7L81.8,810.2L71.9,802.6L64.2,793.6L61.1,792.6L52.8,787.0L46.7,779.6L44.7,774.5L43.3,764.2L38.2,756.0L33.8,750.6L30.8,748.8L27.9,746.1L26.6,739.9L24.9,736.9L21.6,734.6L15.4,728.8L10.6,727.9L7.9,724.0L8.0,721.9L4.5,718.9L3.7,716.0L1.8,705.3L3.3,699.2L-1.5,688.4L-7.2,683.4L-2.1,680.8L3.5,671.1L6.2,663.9L5.2,656.5L8.4,649.6L9.9,636.6L8.6,622.9L7.2,616.0L8.3,609.0L5.4,602.4L-0.7,596.5L-0.2,590.6L0.3,584.2L4.7,580.4L8.5,573.2L7.8,568.5L11.7,558.7L18.2,549.9L22.0,547.6L25.1,539.5L25.4,532.1L29.5,523.6L37.2,518.5L44.5,504.3L50.6,498.8L61.3,497.3L70.4,487.8L76.2,484.1L85.8,472.5L82.9,455.3L87.3,443.3L88.8,436.0L96.3,426.7L107.8,420.3L116.4,414.6L124.1,400.2L127.7,391.7L136.2,391.8L143.2,397.7L154.2,396.7L166.1,399.8L171.1,399.9L182.2,392.3L194.7,389.9L202.0,384.2L213.1,380.0L232.6,377.5L251.7,376.4L257.5,378.4L268.4,373.0L280.7,372.9L285.4,376.1L293.3,375.3L305.9,369.7L314.0,371.3L313.6,378.3L323.4,373.2L324.2,375.9L318.5,382.7L318.4,389.1L322.4,392.6L320.9,404.6L313.3,411.5L315.5,419.1L321.4,419.3L324.3,425.9L328.7,428.1L342.3,432.9L347.1,431.7L356.8,434.0L372.1,440.2L377.5,452.5L387.8,455.2L404.1,461.0L416.4,467.9L422.0,464.3L427.5,457.9L424.8,447.3L428.5,440.6L436.8,434.1L444.7,432.2L460.3,435.0L464.3,441.2L468.6,441.3L472.2,443.6L483.7,445.3L486.5,449.8L501.9,449.6L513.0,453.3L524.4,457.4L529.8,459.5L538.7,455.1L543.4,451.2L553.6,450.0L561.8,451.8L564.9,458.7L567.6,454.1L576.9,457.4L585.8,458.2L591.5,454.7L594.9,450.1L594.1,449.3L597.1,442.9L599.5,432.4L601.1,428.9L601.5,428.7L605.6,417.4L611.3,407.7L611.5,407.2L610.4,396.6L613.3,390.9L609.0,384.6L613.4,379.4L606.4,380.5L596.7,377.4L588.8,385.3L571.3,386.9L561.9,379.5L549.5,379.0L546.8,384.7L538.8,386.4L527.7,379.0L515.1,379.2L508.3,365.5L499.8,357.8L505.4,347.0L498.1,340.3L510.9,327.1L528.7,326.5L533.5,316.0L555.5,317.8L569.4,308.8L582.8,304.9L601.9,304.6L622.1,314.4L638.6,319.7L652.1,317.6L662.0,318.8L675.6,311.6L677.3,305.7L674.5,296.2L667.8,291.1L661.4,289.5L657.2,285.3L642.5,273.5L629.3,268.3L619.3,260.2L627.7,257.9L637.3,246.3L630.9,240.8L647.9,235.2L647.6,232.2L637.2,234.4L628.0,235.5L620.3,240.0L609.5,240.7L599.6,245.9L600.2,254.5L605.9,257.9L617.7,257.0L615.4,262.0L602.8,264.4L587.1,272.4L580.7,269.6L583.2,263.1L570.6,259.0L572.7,256.3L583.7,251.7L580.4,248.6L562.4,245.1L561.6,239.9L550.9,241.6L546.7,249.2L537.7,259.5L538.0,263.1L532.4,266.0L528.9,264.7L525.7,281.5L519.7,287.2L515.5,297.1L519.2,305.1L520.6,310.4L530.6,314.9L528.5,318.3L514.8,319.0L509.9,323.3L500.3,330.8L496.7,324.3L496.8,321.5L489.8,321.1L483.8,319.8L469.8,323.4L477.8,331.2L471.9,333.4L465.5,333.4L459.4,326.3L457.2,329.3L459.8,337.6L465.6,344.1L461.2,347.2L467.7,353.6L473.4,357.6L473.5,365.4L462.9,361.8L466.3,368.8L458.9,370.3L463.3,382.5L455.7,382.7L446.2,376.7L441.9,365.6L439.8,356.3L435.3,350.0L429.4,342.1L428.7,338.1L426.7,337.1L426.5,334.1L420.1,329.4L419.1,322.8L420.0,313.4L421.6,309.0L419.7,306.9L417.3,305.8L414.0,301.3L409.0,298.5L398.2,293.4L391.5,288.4L380.9,284.3L371.2,274.0L373.6,273.0L368.3,267.2L368.1,262.5L360.7,260.3L357.1,266.3L353.7,261.6L354.0,256.8L354.4,256.6L357.0,255.3L347.8,253.3L338.4,258.3L339.0,265.1L337.6,269.1L341.4,276.2L352.2,283.1L358.0,294.6L370.9,305.8L379.9,305.7L382.7,308.8L379.5,311.5L389.8,316.5L398.3,320.7L408.2,328.0L409.4,330.6L407.2,335.5L400.8,329.1L390.8,326.8L385.9,335.7L394.3,340.9L392.9,348.1L388.1,348.9L381.9,360.8L377.1,361.9L377.2,357.7L379.5,350.2L382.0,347.3L377.5,339.2L374.0,332.2L369.2,330.5L365.8,324.5L358.4,322.0L353.4,316.4L344.9,315.5L335.8,309.3L325.3,300.2L317.4,292.2L313.8,278.5L308.1,276.9L298.7,272.3L293.4,274.2L286.7,280.6L281.9,281.7L271.5,289.5L248.7,285.7L231.9,290.2L230.6,298.6L231.2,306.7L220.3,315.9L205.5,318.8L204.5,323.5L197.4,331.2L192.9,342.5L197.4,350.4L190.8,356.6L188.3,365.6L179.6,368.4L171.4,379.0L156.7,379.2L145.7,379.0L138.5,383.9L134.1,389.1L128.5,388.0L124.2,383.3L120.9,375.3L110.1,373.2L105.5,376.8L99.4,374.8L93.5,376.3L95.2,365.5L94.2,357.0L89.0,355.7L86.2,350.4L87.2,341.3L91.8,336.3L92.6,330.7L95.0,322.4L94.7,316.5L92.4,311.5L91.9,306.8L92.5,296.9L87.8,290.9L104.1,280.9L118.2,283.4L133.7,283.3L146.0,285.7L155.6,285.0L174.2,285.4L180.2,277.1L182.4,249.5L170.5,234.9L162.0,227.9L144.3,222.6L143.2,212.4L158.1,209.4L177.5,213.0L173.8,197.3L184.7,203.2L211.6,192.4L215.1,181.1L225.2,178.3L234.4,175.5L240.3,171.7L250.5,151.3L266.2,145.5L275.8,145.9L278.1,143.0L287.7,142.2L289.9,145.3L297.7,138.4L295.1,133.2L294.5,125.4L289.8,117.7L289.5,103.5L291.4,99.7L294.7,95.6L304.9,94.7L309.0,90.9L318.2,87.0L317.8,94.1L314.4,98.6L315.8,102.5L322.1,104.6L319.2,109.8L315.8,108.3L307.5,118.3L310.6,125.1L310.8,130.4L322.5,133.7L322.4,138.6L334.1,136.0L340.6,132.2L353.6,137.7L359.1,142.1L367.0,138.0L385.0,131.6L399.5,126.9L411.0,129.2L411.9,132.6L423.0,132.8L425.6,126.7L441.6,122.2L439.1,110.5L439.5,100.1L445.2,91.4L456.1,86.6L465.2,97.0L474.5,96.7L476.7,86.1L478.0,77.9L473.8,79.7L466.5,74.7L465.5,66.8L480.0,62.9L494.6,60.9L507.1,63.2L519.0,62.8L532.1,55.1L520.0,48.5L499.1,49.6L478.8,54.7L460.0,57.6L453.4,50.0L442.2,45.5L444.7,31.8L439.1,19.3L444.6,11.2L455.1,2.5L481.5,-12.5L489.2,-15.4L488.0,-21.3L472.0,-27.8L452.1,-23.9L440.9,-14.2L442.7,-5.7L424.4,5.4L402.1,17.3L393.7,36.9L401.9,46.7L412.9,54.3L402.3,70.0L390.3,73.2L385.9,96.5L379.4,109.5L365.4,108.2L358.9,119.2L345.5,119.8L341.8,106.7L332.2,91.0L323.4,71.4L315.7,62.8L292.9,78.9L277.5,82.1L261.5,75.1L257.4,60.2L253.8,28.1L264.4,19.2L294.8,7.6L317.6,-6.7L338.7,-26.1L366.5,-52.9L385.8,-63.3L417.5,-80.7L442.8,-86.8L461.8,-86.0L479.4,-97.5L500.4,-96.9L521.1,-99.7L557.2,-89.5L542.4,-85.8L555.0,-77.1L566.9,-81.9L585.9,-73.5L617.5,-70.2L661.1,-54.5L669.9,-48.0L670.7,-38.7L657.9,-31.4L639.0,-27.7L587.5,-38.3L579.1,-36.5L597.9,-26.4L599.4,-5.7L614.2,-1.5L623.2,2.1L624.7,-4.6L617.5,-10.8L625.1,-15.9L653.0,-7.2L662.7,-10.6L655.0,-20.8L681.8,-34.3L692.5,-33.5L703.3,-28.7L710.0,-38.2L700.4,-46.5L706.0,-54.8L697.5,-63.4L729.8,-59.0L736.4,-51.2L721.8,-49.5L721.9,-41.8L731.0,-37.0L748.8,-40.0L751.6,-48.9L775.7,-55.5L816.0,-67.4L824.7,-66.7L813.3,-58.3L827.6,-56.8L835.9,-61.6L857.5,-62.0L874.6,-67.7L887.8,-59.3L900.9,-68.5L888.8,-76.6L894.8,-81.1L928.9,-76.9L944.9,-72.6L986.7,-56.8L994.4,-64.0L982.7,-71.4L982.3,-74.3L968.4,-75.7L972.2,-82.2L966.1,-93.1L965.7,-97.5L987.0,-110.1L994.6,-122.7L1003.2,-125.4L1033.7,-121.7L1036.1,-114.0L1025.2,-102.8L1032.3,-98.3L1036.1,-88.7L1033.4,-69.6L1046.2,-61.1L1041.2,-51.9L1018.6,-32.2L1031.8,-30.1L1036.4,-35.1L1049.1,-38.7L1052.2,-45.6L1062.1,-52.2L1055.4,-60.0L1060.8,-69.2L1048.2,-70.3L1045.4,-78.1L1054.6,-92.0L1039.6,-103.3L1060.3,-112.6L1057.6,-122.5L1063.4,-122.8L1069.4,-115.1L1064.9,-101.8L1077.2,-99.2L1072.0,-109.2L1091.3,-114.7L1115.2,-115.4L1136.5,-107.5L1126.3,-119.1L1125.1,-133.8L1145.2,-136.6L1172.9,-136.0L1197.9,-137.8L1188.6,-145.1L1201.9,-154.2L1215.2,-154.6L1237.6,-161.5L1268.1,-163.3L1271.9,-167.1L1302.2,-168.4L1311.7,-165.3L1337.6,-172.7L1358.8,-172.4L1361.9,-178.4L1373.0,-184.3L1400.2,-190.0L1420.0,-185.5L1404.3,-182.1L1430.4,-180.0Z"/><path d="M-116.5,-270.8L-44.4,-259.8L-65.7,-254.4L-109.8,-253.8L-171.9,-252.5L-166.1,-250.0L-125.3,-251.5L-90.5,-246.7L-68.1,-251.0L-58.5,-246.0L-71.2,-237.9L-41.8,-243.1L14.2,-248.5L48.8,-245.8L55.3,-239.9L8.2,-230.0L1.7,-226.8L-35.1,-224.4L-8.4,-223.7L-21.9,-213.6L-31.2,-204.6L-30.8,-189.2L-17.0,-180.1L-35.0,-179.6L-54.0,-175.2L-32.7,-167.8L-30.0,-156.0L-42.3,-154.7L-27.4,-142.8L-53.0,-141.8L-39.6,-136.2L-43.4,-131.3L-59.7,-129.1L-75.8,-129.1L-61.3,-119.7L-61.1,-113.5L-84.0,-119.3L-89.9,-115.5L-74.3,-112.1L-59.2,-103.6L-54.8,-92.4L-75.4,-89.8L-84.3,-95.1L-98.6,-103.1L-94.6,-93.7L-108.0,-86.4L-77.6,-85.8L-61.7,-85.0L-92.6,-72.9L-124.0,-62.0L-157.8,-57.2L-170.5,-57.2L-182.4,-51.8L-198.5,-37.2L-223.3,-27.4L-231.3,-26.9L-246.6,-23.5L-263.2,-20.2L-273.1,-11.7L-273.3,-1.9L-279.1,7.2L-297.9,18.3L-293.3,29.1L-298.5,40.6L-304.4,54.1L-320.6,55.0L-337.7,43.6L-360.7,43.6L-371.9,36.0L-379.6,22.4L-399.6,5.2L-405.5,-3.9L-407.0,-16.3L-423.0,-29.1L-418.9,-39.3L-426.6,-44.2L-415.2,-60.4L-397.8,-65.6L-393.2,-71.4L-390.8,-82.2L-404.0,-77.3L-410.3,-75.3L-420.6,-73.3L-434.8,-77.8L-435.6,-87.2L-431.1,-94.6L-420.4,-94.8L-396.8,-91.1L-416.6,-99.9L-427.0,-104.7L-438.5,-102.7L-448.1,-106.2L-435.2,-119.1L-442.2,-124.3L-451.4,-133.9L-465.3,-148.6L-480.0,-153.9L-479.8,-159.8L-510.8,-167.9L-535.3,-168.9L-566.1,-168.3L-594.3,-167.3L-607.7,-171.7L-627.7,-180.4L-597.4,-184.8L-574.2,-185.5L-623.6,-189.1L-649.6,-194.8L-648.0,-200.2L-604.3,-206.9L-562.0,-213.5L-557.6,-218.6L-588.7,-223.6L-578.7,-229.1L-538.7,-238.8L-521.9,-240.3L-526.7,-246.5L-499.4,-250.1L-463.9,-252.3L-428.5,-252.4L-415.9,-248.1L-385.3,-255.8L-357.7,-250.6L-341.5,-249.5L-317.6,-245.0L-345.0,-252.4L-343.4,-258.4L-304.7,-266.7L-264.2,-266.0L-249.5,-271.2L-208.7,-272.5L-116.5,-270.8Z"/></g></svg>
